<svg width="19" height="15" viewBox="0 0 19 15" fill="none" xmlns="http://www.w3.org/2000/svg">
<path fill-rule="evenodd" clip-rule="evenodd" d="M17.8955 6.29886L11.2811 0.111046C11.2014 0.0360464 11.1264 -0.00614355 11.0186 -0.00146355C10.8123 0.00791645 10.5498 0.153236 10.5498 0.373556V3.47684C10.5498 3.57059 10.4748 3.65497 10.381 3.66904C3.80412 4.6769 1.03367 9.59903 0.0539326 14.7087C0.0164326 14.9102 0.288323 15.0977 0.414893 14.9384C2.81501 11.9148 5.73547 9.94123 10.3529 9.90373C10.456 9.90373 10.5498 10.0256 10.5498 10.1287V13.1758C10.5498 13.5039 10.9858 13.6492 11.2295 13.4242L17.8908 7.12859C18.0127 7.01608 18.0502 6.88483 18.0549 6.73482C18.0502 6.58481 18.0127 6.41137 17.8955 6.29886H17.8955Z" fill="#BFB6EB"/>
</svg>
